<?xml version="1.0" encoding="UTF-8" standalone="no"?>
<svg width="300px" height="20px" viewBox="0 0 300 20" version="1.1" xmlns="http://www.w3.org/2000/svg" xmlns:xlink="http://www.w3.org/1999/xlink">
    <!-- Generator: Sketch 42 (36781) - http://www.bohemiancoding.com/sketch -->
    <title>60off</title>
    <desc>Created with Sketch.</desc>
    <defs></defs>
    <g id="Page-1" stroke="none" stroke-width="1" fill="none" fill-rule="evenodd">
        <g id="Desktop-HD" transform="translate(-571.000000, -113.000000)" fill="#FFFFFF">
            <path d="M571.54,114.144 L580.708,114.144 L580.708,121.488 C580.708,121.984002 580.771999,122.475998 580.9,122.964 C581.028001,123.452002 581.263998,123.891998 581.608,124.284 C581.952002,124.676002 582.423997,124.991999 583.024,125.232 C583.624003,125.472001 584.403995,125.592 585.364,125.592 L585.412,125.592 C586.340005,125.592 587.107997,125.472001 587.716,125.232 C588.324003,124.991999 588.799998,124.676002 589.144,124.284 C589.488002,123.891998 589.727999,123.452002 589.864,122.964 C590.000001,122.475998 590.068,121.984002 590.068,121.488 L590.068,114.144 L599.236,114.144 L599.236,122.424 C599.236,123.016003 599.184001,123.671996 599.08,124.392 C598.975999,125.112004 598.764002,125.839996 598.444,126.576 C598.123998,127.312004 597.664003,128.023997 597.064,128.712 C596.463997,129.400003 595.672005,130.011997 594.688,130.548 C593.703995,131.084003 592.500007,131.511998 591.076,131.832 C589.651993,132.152002 587.94801,132.312 585.964,132.312 L584.764,132.312 C582.77999,132.312 581.076007,132.152002 579.652,131.832 C578.227993,131.511998 577.024005,131.084003 576.04,130.548 C575.055995,130.011997 574.272003,129.400003 573.688,128.712 C573.103997,128.023997 572.652002,127.312004 572.332,126.576 C572.011998,125.839996 571.800001,125.112004 571.696,124.392 C571.591999,123.671996 571.54,123.016003 571.54,122.424 L571.54,114.144 Z M609.676,127.128 L609.676,132 L600.556,132 L600.556,114.144 L618.292,114.144 C620.020009,114.144 621.447994,114.303998 622.576,114.624 C623.704006,114.944002 624.599997,115.379997 625.264,115.932 C625.928003,116.484003 626.391999,117.131996 626.656,117.876 C626.920001,118.620004 627.052,119.407996 627.052,120.24 L627.052,120.864 C627.052,121.696004 626.916001,122.491996 626.644,123.252 C626.371999,124.012004 625.900003,124.679997 625.228,125.256 C624.555997,125.832003 623.656006,126.287998 622.528,126.624 C621.399994,126.960002 619.988008,127.128 618.292,127.128 L609.676,127.128 Z M609.676,121.728 L616.06,121.728 C616.684003,121.728 617.107999,121.612001 617.332,121.38 C617.556001,121.147999 617.668,120.880002 617.668,120.576 L617.668,120.528 C617.668,120.207998 617.556001,119.936001 617.332,119.712 C617.107999,119.487999 616.684003,119.376 616.06,119.376 L609.676,119.376 L609.676,121.728 Z M642.532,120.288 L634.828,120.288 L634.828,114.144 L659.356,114.144 L659.356,120.288 L651.652,120.288 L651.652,132 L642.532,132 L642.532,120.288 Z M675.292,113.784 C677.30801,113.784 679.047993,113.915999 680.512,114.18 C681.976007,114.444001 683.223995,114.799998 684.256,115.248 C685.288005,115.696002 686.123997,116.219997 686.764,116.82 C687.404003,117.420003 687.903998,118.047997 688.264,118.704 C688.624002,119.360003 688.867999,120.027997 688.996,120.708 C689.124001,121.388003 689.188,122.039997 689.188,122.664 L689.188,123.384 C689.188,123.992003 689.124001,124.635997 688.996,125.316 C688.867999,125.996003 688.624002,126.671997 688.264,127.344 C687.903998,128.016003 687.404003,128.651997 686.764,129.252 C686.123997,129.852003 685.288005,130.383998 684.256,130.848 C683.223995,131.312002 681.972007,131.679999 680.5,131.952 C679.027993,132.224001 677.29201,132.36 675.292,132.36 L674.092,132.36 C672.09199,132.36 670.360007,132.224001 668.896,131.952 C667.431993,131.679999 666.184005,131.312002 665.152,130.848 C664.119995,130.383998 663.280003,129.852003 662.632,129.252 C661.983997,128.651997 661.480002,128.016003 661.12,127.344 C660.759998,126.671997 660.516001,125.996003 660.388,125.316 C660.259999,124.635997 660.196,123.992003 660.196,123.384 L660.196,122.664 C660.196,122.039997 660.259999,121.388003 660.388,120.708 C660.516001,120.027997 660.759998,119.360003 661.12,118.704 C661.480002,118.047997 661.979997,117.420003 662.62,116.82 C663.260003,116.219997 664.095995,115.696002 665.128,115.248 C666.160005,114.799998 667.407993,114.444001 668.872,114.18 C670.336007,113.915999 672.07599,113.784 674.092,113.784 L675.292,113.784 Z M679.78,122.808 C679.78,122.423998 679.696001,122.032002 679.528,121.632 C679.359999,121.231998 679.080002,120.872002 678.688,120.552 C678.295998,120.231998 677.772003,119.972001 677.116,119.772 C676.459997,119.571999 675.644005,119.472 674.668,119.472 C673.675995,119.472 672.852003,119.571999 672.196,119.772 C671.539997,119.972001 671.020002,120.231998 670.636,120.552 C670.251998,120.872002 669.980001,121.231998 669.82,121.632 C669.659999,122.032002 669.58,122.423998 669.58,122.808 L669.58,123.096 C669.58,123.496002 669.663999,123.903998 669.832,124.32 C670.000001,124.736002 670.283998,125.115998 670.684,125.46 C671.084002,125.804002 671.607997,126.083999 672.256,126.3 C672.904003,126.516001 673.707995,126.624 674.668,126.624 C675.644005,126.624 676.455997,126.520001 677.104,126.312 C677.752003,126.103999 678.275998,125.832002 678.676,125.496 C679.076002,125.159998 679.359999,124.784002 679.528,124.368 C679.696001,123.951998 679.78,123.544002 679.78,123.144 L679.78,122.808 Z M709.636,132.36 C707.71599,132.36 706.072007,132.208002 704.704,131.904 C703.335993,131.599998 702.184005,131.200002 701.248,130.704 C700.311995,130.207998 699.564003,129.640003 699.004,129 C698.443997,128.359997 698.016001,127.708003 697.72,127.044 C697.423999,126.379997 697.232,125.728003 697.144,125.088 C697.056,124.447997 697.012,123.872003 697.012,123.36 L697.012,122.784 C697.012,122.303998 697.056,121.744003 697.144,121.104 C697.232,120.463997 697.419999,119.812003 697.708,119.148 C697.996001,118.483997 698.419997,117.832003 698.98,117.192 C699.540003,116.551997 700.291995,115.980003 701.236,115.476 C702.180005,114.971997 703.351993,114.564002 704.752,114.252 C706.152007,113.939998 707.84399,113.784 709.828,113.784 L710.956,113.784 C712.636008,113.784 714.099994,113.875999 715.348,114.06 C716.596006,114.244001 717.659996,114.487998 718.54,114.792 C719.420004,115.096002 720.139997,115.447998 720.7,115.848 C721.260003,116.248002 721.699998,116.663998 722.02,117.096 C722.340002,117.528002 722.559999,117.963998 722.68,118.404 C722.800001,118.844002 722.86,119.247998 722.86,119.616 L722.86,119.736 L713.74,119.736 C713.692,119.672 713.612001,119.576001 713.5,119.448 C713.387999,119.319999 713.220001,119.188001 712.996,119.052 C712.771999,118.915999 712.476002,118.8 712.108,118.704 C711.739998,118.608 711.284003,118.56 710.74,118.56 C709.907996,118.56 709.216003,118.663999 708.664,118.872 C708.111997,119.080001 707.672002,119.343998 707.344,119.664 C707.015998,119.984002 706.784001,120.339998 706.648,120.732 C706.511999,121.124002 706.444,121.495998 706.444,121.848 L706.444,122.016 C706.556001,121.936 706.767998,121.808001 707.08,121.632 C707.392002,121.455999 707.835997,121.276001 708.412,121.092 C708.988003,120.907999 709.719996,120.748001 710.608,120.612 C711.496004,120.475999 712.563994,120.408 713.812,120.408 L714.1,120.408 C715.956009,120.408 717.499994,120.531999 718.732,120.78 C719.964006,121.028001 720.947996,121.379998 721.684,121.836 C722.420004,122.292002 722.939998,122.839997 723.244,123.48 C723.548002,124.120003 723.7,124.831996 723.7,125.616 L723.7,125.832 C723.7,126.312002 723.648001,126.811997 723.544,127.332 C723.439999,127.852003 723.232002,128.351998 722.92,128.832 C722.607998,129.312002 722.160003,129.767998 721.576,130.2 C720.991997,130.632002 720.224005,131.007998 719.272,131.328 C718.319995,131.648002 717.148007,131.899999 715.756,132.084 C714.363993,132.268001 712.70001,132.36 710.764,132.36 L709.636,132.36 Z M706.876,126.072 C706.876,126.280001 706.924,126.471999 707.02,126.648 C707.116,126.824001 707.303999,126.975999 707.584,127.104 C707.864001,127.232001 708.247998,127.332 708.736,127.404 C709.224002,127.476 709.851996,127.512 710.62,127.512 C711.372004,127.512 711.987998,127.476 712.468,127.404 C712.948002,127.332 713.323999,127.232001 713.596,127.104 C713.868001,126.975999 714.052,126.824001 714.148,126.648 C714.244,126.471999 714.292,126.280001 714.292,126.072 L714.292,126.048 C714.292,125.855999 714.244,125.676001 714.148,125.508 C714.052,125.339999 713.868001,125.188001 713.596,125.052 C713.323999,124.915999 712.948002,124.812 712.468,124.74 C711.987998,124.668 711.372004,124.632 710.62,124.632 C709.851996,124.632 709.224002,124.668 708.736,124.74 C708.247998,124.812 707.864001,124.915999 707.584,125.052 C707.303999,125.188001 707.116,125.339999 707.02,125.508 C706.924,125.676001 706.876,125.855999 706.876,126.048 L706.876,126.072 Z M752.356,123.432 C752.356,124.008003 752.296001,124.631997 752.176,125.304 C752.055999,125.976003 751.824002,126.639997 751.48,127.296 C751.135998,127.952003 750.656003,128.587997 750.04,129.204 C749.423997,129.820003 748.616005,130.359998 747.616,130.824 C746.615995,131.288002 745.404007,131.659999 743.98,131.94 C742.555993,132.220001 740.86001,132.36 738.892,132.36 L737.764,132.36 C735.79599,132.36 734.096007,132.220001 732.664,131.94 C731.231993,131.659999 730.016005,131.288002 729.016,130.824 C728.015995,130.359998 727.208003,129.820003 726.592,129.204 C725.975997,128.587997 725.496002,127.952003 725.152,127.296 C724.807998,126.639997 724.576001,125.976003 724.456,125.304 C724.335999,124.631997 724.276,124.008003 724.276,123.432 L724.276,122.712 C724.276,122.135997 724.335999,121.512003 724.456,120.84 C724.576001,120.167997 724.807998,119.500003 725.152,118.836 C725.496002,118.171997 725.975997,117.536003 726.592,116.928 C727.208003,116.319997 728.015995,115.784002 729.016,115.32 C730.016005,114.855998 731.231993,114.484001 732.664,114.204 C734.096007,113.923999 735.79599,113.784 737.764,113.784 L738.892,113.784 C740.86001,113.784 742.555993,113.923999 743.98,114.204 C745.404007,114.484001 746.615995,114.855998 747.616,115.32 C748.616005,115.784002 749.423997,116.319997 750.04,116.928 C750.656003,117.536003 751.135998,118.171997 751.48,118.836 C751.824002,119.500003 752.055999,120.167997 752.176,120.84 C752.296001,121.512003 752.356,122.135997 752.356,122.712 L752.356,123.432 Z M742.972,122.832 C742.972,122.447998 742.900001,122.056002 742.756,121.656 C742.611999,121.255998 742.360002,120.892002 742,120.564 C741.639998,120.235998 741.160003,119.968001 740.56,119.76 C739.959997,119.551999 739.212004,119.448 738.316,119.448 C737.403995,119.448 736.648003,119.551999 736.048,119.76 C735.447997,119.968001 734.972002,120.235998 734.62,120.564 C734.267998,120.892002 734.020001,121.255998 733.876,121.656 C733.731999,122.056002 733.66,122.447998 733.66,122.832 L733.66,123.12 C733.66,123.504002 733.731999,123.903998 733.876,124.32 C734.020001,124.736002 734.271998,125.111998 734.632,125.448 C734.992002,125.784002 735.471997,126.063999 736.072,126.288 C736.672003,126.512001 737.419996,126.624 738.316,126.624 C739.228005,126.624 739.979997,126.512001 740.572,126.288 C741.164003,126.063999 741.639998,125.784002 742,125.448 C742.360002,125.111998 742.611999,124.736002 742.756,124.32 C742.900001,123.903998 742.972,123.504002 742.972,123.12 L742.972,122.832 Z M760.828,124.272 C759.147992,124.272 757.796005,124.104002 756.772,123.768 C755.747995,123.431998 754.960003,123.012003 754.408,122.508 C753.855997,122.003997 753.488001,121.456003 753.304,120.864 C753.119999,120.271997 753.028,119.720003 753.028,119.208 L753.028,118.896 C753.028,118.383997 753.119999,117.840003 753.304,117.264 C753.488001,116.687997 753.859997,116.156002 754.42,115.668 C754.980003,115.179998 755.775995,114.776002 756.808,114.456 C757.840005,114.135998 759.195992,113.976 760.876,113.976 L761.26,113.976 C762.940008,113.976 764.295995,114.135998 765.328,114.456 C766.360005,114.776002 767.155997,115.179998 767.716,115.668 C768.276003,116.156002 768.647999,116.687997 768.832,117.264 C769.016001,117.840003 769.108,118.383997 769.108,118.896 L769.108,119.208 C769.108,119.720003 769.016001,120.271997 768.832,120.864 C768.647999,121.456003 768.280003,122.003997 767.728,122.508 C767.175997,123.012003 766.388005,123.431998 765.364,123.768 C764.339995,124.104002 762.988008,124.272 761.308,124.272 L760.828,124.272 Z M784.108,114.144 L763.876,132 L757.948,132 L778.156,114.144 L784.108,114.144 Z M761.068,120.72 C761.772004,120.72 762.271999,120.556002 762.568,120.228 C762.864001,119.899998 763.012,119.528002 763.012,119.112 L763.012,119.04 C763.012,118.831999 762.976,118.632001 762.904,118.44 C762.832,118.247999 762.720001,118.080001 762.568,117.936 C762.415999,117.791999 762.216001,117.676 761.968,117.588 C761.719999,117.5 761.420002,117.456 761.068,117.456 C760.715998,117.456 760.416001,117.5 760.168,117.588 C759.919999,117.676 759.720001,117.791999 759.568,117.936 C759.415999,118.080001 759.304,118.247999 759.232,118.44 C759.16,118.632001 759.124,118.831999 759.124,119.04 L759.124,119.112 C759.124,119.528002 759.271999,119.899998 759.568,120.228 C759.864001,120.556002 760.363996,120.72 761.068,120.72 Z M780.796,132.192 C779.115992,132.192 777.764005,132.024002 776.74,131.688 C775.715995,131.351998 774.928003,130.932003 774.376,130.428 C773.823997,129.923997 773.456001,129.376003 773.272,128.784 C773.087999,128.191997 772.996,127.640003 772.996,127.128 L772.996,126.816 C772.996,126.303997 773.087999,125.760003 773.272,125.184 C773.456001,124.607997 773.827997,124.076002 774.388,123.588 C774.948003,123.099998 775.743995,122.696002 776.776,122.376 C777.808005,122.055998 779.163992,121.896 780.844,121.896 L781.228,121.896 C782.908008,121.896 784.263995,122.055998 785.296,122.376 C786.328005,122.696002 787.123997,123.099998 787.684,123.588 C788.244003,124.076002 788.615999,124.607997 788.8,125.184 C788.984001,125.760003 789.076,126.303997 789.076,126.816 L789.076,127.128 C789.076,127.640003 788.984001,128.191997 788.8,128.784 C788.615999,129.376003 788.248003,129.923997 787.696,130.428 C787.143997,130.932003 786.356005,131.351998 785.332,131.688 C784.307995,132.024002 782.956008,132.192 781.276,132.192 L780.796,132.192 Z M781.036,128.64 C781.740004,128.64 782.239999,128.476002 782.536,128.148 C782.832001,127.819998 782.98,127.448002 782.98,127.032 L782.98,126.96 C782.98,126.751999 782.944,126.552001 782.872,126.36 C782.8,126.167999 782.688001,126.000001 782.536,125.856 C782.383999,125.711999 782.184001,125.596 781.936,125.508 C781.687999,125.42 781.388002,125.376 781.036,125.376 C780.683998,125.376 780.384001,125.42 780.136,125.508 C779.887999,125.596 779.688001,125.711999 779.536,125.856 C779.383999,126.000001 779.272,126.167999 779.2,126.36 C779.128,126.552001 779.092,126.751999 779.092,126.96 L779.092,127.032 C779.092,127.448002 779.239999,127.819998 779.536,128.148 C779.832001,128.476002 780.331996,128.64 781.036,128.64 Z M811.948,113.784 C813.96401,113.784 815.703993,113.915999 817.168,114.18 C818.632007,114.444001 819.879995,114.799998 820.912,115.248 C821.944005,115.696002 822.779997,116.219997 823.42,116.82 C824.060003,117.420003 824.559998,118.047997 824.92,118.704 C825.280002,119.360003 825.523999,120.027997 825.652,120.708 C825.780001,121.388003 825.844,122.039997 825.844,122.664 L825.844,123.384 C825.844,123.992003 825.780001,124.635997 825.652,125.316 C825.523999,125.996003 825.280002,126.671997 824.92,127.344 C824.559998,128.016003 824.060003,128.651997 823.42,129.252 C822.779997,129.852003 821.944005,130.383998 820.912,130.848 C819.879995,131.312002 818.628007,131.679999 817.156,131.952 C815.683993,132.224001 813.94801,132.36 811.948,132.36 L810.748,132.36 C808.74799,132.36 807.016007,132.224001 805.552,131.952 C804.087993,131.679999 802.840005,131.312002 801.808,130.848 C800.775995,130.383998 799.936003,129.852003 799.288,129.252 C798.639997,128.651997 798.136002,128.016003 797.776,127.344 C797.415998,126.671997 797.172001,125.996003 797.044,125.316 C796.915999,124.635997 796.852,123.992003 796.852,123.384 L796.852,122.664 C796.852,122.039997 796.915999,121.388003 797.044,120.708 C797.172001,120.027997 797.415998,119.360003 797.776,118.704 C798.136002,118.047997 798.635997,117.420003 799.276,116.82 C799.916003,116.219997 800.751995,115.696002 801.784,115.248 C802.816005,114.799998 804.063993,114.444001 805.528,114.18 C806.992007,113.915999 808.73199,113.784 810.748,113.784 L811.948,113.784 Z M816.436,122.808 C816.436,122.423998 816.352001,122.032002 816.184,121.632 C816.015999,121.231998 815.736002,120.872002 815.344,120.552 C814.951998,120.231998 814.428003,119.972001 813.772,119.772 C813.115997,119.571999 812.300005,119.472 811.324,119.472 C810.331995,119.472 809.508003,119.571999 808.852,119.772 C808.195997,119.972001 807.676002,120.231998 807.292,120.552 C806.907998,120.872002 806.636001,121.231998 806.476,121.632 C806.315999,122.032002 806.236,122.423998 806.236,122.808 L806.236,123.096 C806.236,123.496002 806.319999,123.903998 806.488,124.32 C806.656001,124.736002 806.939998,125.115998 807.34,125.46 C807.740002,125.804002 808.263997,126.083999 808.912,126.3 C809.560003,126.516001 810.363995,126.624 811.324,126.624 C812.300005,126.624 813.111997,126.520001 813.76,126.312 C814.408003,126.103999 814.931998,125.832002 815.332,125.496 C815.732002,125.159998 816.015999,124.784002 816.184,124.368 C816.352001,123.951998 816.436,123.544002 816.436,123.144 L816.436,122.808 Z M848.068,114.144 L848.068,119.136 L835.924,119.136 L835.924,120.576 L847.876,120.576 L847.876,125.544 L835.924,125.544 L835.924,132 L826.948,132 L826.948,114.144 L848.068,114.144 Z M870.484,114.144 L870.484,119.136 L858.34,119.136 L858.34,120.576 L870.292,120.576 L870.292,125.544 L858.34,125.544 L858.34,132 L849.364,132 L849.364,114.144 L870.484,114.144 Z" id="60off"></path>
        </g>
    </g>
</svg>