<?xml version="1.0" encoding="UTF-8"?>
<svg width="788px" height="356px" viewBox="0 0 788 356" version="1.1" xmlns="http://www.w3.org/2000/svg" xmlns:xlink="http://www.w3.org/1999/xlink">
    <!-- Generator: Sketch 41.2 (35397) - http://www.bohemiancoding.com/sketch -->
    <title>neuegoods</title>
    <desc>Created with Sketch.</desc>
    <defs></defs>
    <g id="Page-1" stroke="none" stroke-width="1" fill="none" fill-rule="evenodd">
        <g id="Desktop-HD" transform="translate(-326.000000, -335.000000)" fill="#FFFFFF">
            <path d="M410,338 L410,659 L408,659 L400.5,338 L326.5,338 L326.5,688 L365,688 L365,367 L367,367 L374.5,688 L448.5,688 L448.5,338 L410,338 Z M502.5,370 L502.5,338 L454.5,338 L454.5,688 L502.5,688 L502.5,656 L493,656 L493,529 L502.5,529 L502.5,497 L493,497 L493,370 L502.5,370 Z M553,338 L553,655 L547,655 L547,338 L508.5,338 L508.5,649 C508.5,677 521.5,690 550,690 C578.5,690 591.5,677 591.5,649 L591.5,338 L553,338 Z M645.5,370 L645.5,338 L597.5,338 L597.5,688 L645.5,688 L645.5,656 L636,656 L636,529 L645.5,529 L645.5,497 L636,497 L636,370 L645.5,370 Z M757.5,490.5 L757.5,376 C757.5,348 744.5,335 714,335 C683.5,335 670.5,348 670.5,376 L670.5,650 C670.5,678 683.5,691 714,691 C744.5,691 757.5,678 757.5,650 L757.5,497 L714,497 L714,529 L719,529 L719,656 L709,656 L709,370 L719,370 L719,490.5 L757.5,490.5 Z M805,335 C776.5,335 763.5,348 763.5,376 L763.5,650 C763.5,678 776.5,691 805,691 C833.5,691 846.5,678 846.5,650 L846.5,376 C846.5,348 833.5,335 805,335 Z M808,656 L802,656 L802,370 L808,370 L808,656 Z M894,335 C865.5,335 852.5,348 852.5,376 L852.5,650 C852.5,678 865.5,691 894,691 C922.5,691 935.5,678 935.5,650 L935.5,376 C935.5,348 922.5,335 894,335 Z M897,656 L891,656 L891,370 L897,370 L897,656 Z M941.5,338 L941.5,688 L983,688 C1012.5,688 1024.5,676 1024.5,647 L1024.5,379 C1024.5,350 1012.5,338 983,338 L941.5,338 Z M986,656 L980,656 L980,370 L986,370 L986,656 Z M1069,656 L1069,538 L1030.5,538 L1030.5,649 C1030.5,678 1043.5,691 1072,691 C1100.5,691 1113.5,678 1113.5,649 L1113.5,548 C1113.5,501 1069,492 1069,469.5 L1069,370 L1075,370 L1075,474.5 L1113.5,474.5 L1113.5,377 C1113.5,348 1100.5,335 1072,335 C1043.5,335 1030.5,348 1030.5,377 L1030.5,469 C1030.5,513 1075,521.5 1075,543 L1075,656 L1069,656 Z" id="neuegoods"></path>
        </g>
    </g>
</svg>