<?xml version="1.0" encoding="UTF-8"?>
<svg width="224px" height="20px" viewBox="0 0 224 20" version="1.1" xmlns="http://www.w3.org/2000/svg" xmlns:xlink="http://www.w3.org/1999/xlink">
    <!-- Generator: Sketch 41.2 (35397) - http://www.bohemiancoding.com/sketch -->
    <title>salessite</title>
    <desc>Created with Sketch.</desc>
    <defs></defs>
    <g id="Page-1" stroke="none" stroke-width="1" fill="none" fill-rule="evenodd">
        <g id="Desktop-HD" transform="translate(-609.000000, -910.000000)" fill="#FFFFFF">
            <path d="M621.172,929.36 C619.363991,929.36 617.820006,929.260001 616.54,929.06 C615.259994,928.859999 614.180004,928.592002 613.3,928.256 C612.419996,927.919998 611.720003,927.536002 611.2,927.104 C610.679997,926.671998 610.284001,926.224002 610.012,925.76 C609.739999,925.295998 609.564,924.836002 609.484,924.38 C609.404,923.923998 609.364,923.504002 609.364,923.12 L609.364,922.928 L620.044,922.928 C620.044,923.120001 620.076,923.327999 620.14,923.552 C620.204,923.776001 620.331999,923.983999 620.524,924.176 C620.716001,924.368001 620.999998,924.527999 621.376,924.656 C621.752002,924.784001 622.251997,924.848 622.876,924.848 C623.404003,924.848 623.843998,924.812 624.196,924.74 C624.548002,924.668 624.827999,924.576001 625.036,924.464 C625.244001,924.351999 625.392,924.220001 625.48,924.068 C625.568,923.915999 625.612,923.760001 625.612,923.6 L625.612,923.528 C625.612,923.383999 625.584,923.240001 625.528,923.096 C625.472,922.951999 625.332001,922.824001 625.108,922.712 C624.883999,922.599999 624.552002,922.504 624.112,922.424 C623.671998,922.344 623.068004,922.288 622.3,922.256 L618.532,922.136 C616.691991,922.072 615.196006,921.872002 614.044,921.536 C612.891994,921.199998 611.992003,920.776003 611.344,920.264 C610.695997,919.751997 610.252001,919.168003 610.012,918.512 C609.771999,917.855997 609.652,917.176004 609.652,916.472 L609.652,916.256 C609.652,915.423996 609.835998,914.672003 610.204,914 C610.572002,913.327997 611.195996,912.756002 612.076,912.284 C612.956004,911.811998 614.119993,911.452001 615.568,911.204 C617.016007,910.955999 618.819989,910.832 620.98,910.832 L624.028,910.832 C626.428012,910.832 628.391992,910.979999 629.92,911.276 C631.448008,911.572001 632.647996,911.975997 633.52,912.488 C634.392004,913.000003 634.995998,913.595997 635.332,914.276 C635.668002,914.956003 635.836,915.679996 635.836,916.448 L635.836,916.568 L625.372,916.568 C625.356,916.423999 625.316,916.268001 625.252,916.1 C625.188,915.931999 625.060001,915.776001 624.868,915.632 C624.675999,915.487999 624.404002,915.368 624.052,915.272 C623.699998,915.176 623.228003,915.128 622.636,915.128 C622.091997,915.128 621.652002,915.148 621.316,915.188 C620.979998,915.228 620.716001,915.288 620.524,915.368 C620.331999,915.448 620.204,915.547999 620.14,915.668 C620.076,915.788001 620.044,915.919999 620.044,916.064 L620.044,916.112 C620.044,916.288001 620.095999,916.435999 620.2,916.556 C620.304001,916.676001 620.483999,916.78 620.74,916.868 C620.996001,916.956 621.347998,917.028 621.796,917.084 C622.244002,917.14 622.811997,917.176 623.5,917.192 L627.1,917.288 C628.844009,917.336 630.311994,917.479999 631.504,917.72 C632.696006,917.960001 633.663996,918.303998 634.408,918.752 C635.152004,919.200002 635.687998,919.755997 636.016,920.42 C636.344002,921.084003 636.508,921.871995 636.508,922.784 L636.508,923.12 C636.508,923.920004 636.348002,924.691996 636.028,925.436 C635.707998,926.180004 635.104004,926.843997 634.216,927.428 C633.327996,928.012003 632.092008,928.479998 630.508,928.832 C628.923992,929.184002 626.860013,929.36 624.316,929.36 L621.172,929.36 Z M650.884,916.64 L648.748,921.584 L653.068,921.584 L650.884,916.64 Z M655.396,926.864 L646.468,926.864 L645.532,929 L636.316,929 L644.74,911.144 L657.556,911.144 L666.508,929 L656.332,929 L655.396,926.864 Z M676.012,911.144 L676.012,922.64 L688.396,922.64 L688.396,929 L666.892,929 L666.892,911.144 L676.012,911.144 Z M711.172,911.144 L711.172,916.136 L698.62,916.136 L698.62,917.528 L711.028,917.528 L711.028,922.424 L698.62,922.424 L698.62,923.96 L711.268,923.96 L711.268,929 L689.644,929 L689.644,911.144 L711.172,911.144 Z M723.724,929.36 C721.915991,929.36 720.372006,929.260001 719.092,929.06 C717.811994,928.859999 716.732004,928.592002 715.852,928.256 C714.971996,927.919998 714.272003,927.536002 713.752,927.104 C713.231997,926.671998 712.836001,926.224002 712.564,925.76 C712.291999,925.295998 712.116,924.836002 712.036,924.38 C711.956,923.923998 711.916,923.504002 711.916,923.12 L711.916,922.928 L722.596,922.928 C722.596,923.120001 722.628,923.327999 722.692,923.552 C722.756,923.776001 722.883999,923.983999 723.076,924.176 C723.268001,924.368001 723.551998,924.527999 723.928,924.656 C724.304002,924.784001 724.803997,924.848 725.428,924.848 C725.956003,924.848 726.395998,924.812 726.748,924.74 C727.100002,924.668 727.379999,924.576001 727.588,924.464 C727.796001,924.351999 727.944,924.220001 728.032,924.068 C728.12,923.915999 728.164,923.760001 728.164,923.6 L728.164,923.528 C728.164,923.383999 728.136,923.240001 728.08,923.096 C728.024,922.951999 727.884001,922.824001 727.66,922.712 C727.435999,922.599999 727.104002,922.504 726.664,922.424 C726.223998,922.344 725.620004,922.288 724.852,922.256 L721.084,922.136 C719.243991,922.072 717.748006,921.872002 716.596,921.536 C715.443994,921.199998 714.544003,920.776003 713.896,920.264 C713.247997,919.751997 712.804001,919.168003 712.564,918.512 C712.323999,917.855997 712.204,917.176004 712.204,916.472 L712.204,916.256 C712.204,915.423996 712.387998,914.672003 712.756,914 C713.124002,913.327997 713.747996,912.756002 714.628,912.284 C715.508004,911.811998 716.671993,911.452001 718.12,911.204 C719.568007,910.955999 721.371989,910.832 723.532,910.832 L726.58,910.832 C728.980012,910.832 730.943992,910.979999 732.472,911.276 C734.000008,911.572001 735.199996,911.975997 736.072,912.488 C736.944004,913.000003 737.547998,913.595997 737.884,914.276 C738.220002,914.956003 738.388,915.679996 738.388,916.448 L738.388,916.568 L727.924,916.568 C727.908,916.423999 727.868,916.268001 727.804,916.1 C727.74,915.931999 727.612001,915.776001 727.42,915.632 C727.227999,915.487999 726.956002,915.368 726.604,915.272 C726.251998,915.176 725.780003,915.128 725.188,915.128 C724.643997,915.128 724.204002,915.148 723.868,915.188 C723.531998,915.228 723.268001,915.288 723.076,915.368 C722.883999,915.448 722.756,915.547999 722.692,915.668 C722.628,915.788001 722.596,915.919999 722.596,916.064 L722.596,916.112 C722.596,916.288001 722.647999,916.435999 722.752,916.556 C722.856001,916.676001 723.035999,916.78 723.292,916.868 C723.548001,916.956 723.899998,917.028 724.348,917.084 C724.796002,917.14 725.363997,917.176 726.052,917.192 L729.652,917.288 C731.396009,917.336 732.863994,917.479999 734.056,917.72 C735.248006,917.960001 736.215996,918.303998 736.96,918.752 C737.704004,919.200002 738.239998,919.755997 738.568,920.42 C738.896002,921.084003 739.06,921.871995 739.06,922.784 L739.06,923.12 C739.06,923.920004 738.900002,924.691996 738.58,925.436 C738.259998,926.180004 737.656004,926.843997 736.768,927.428 C735.879996,928.012003 734.644008,928.479998 733.06,928.832 C731.475992,929.184002 729.412013,929.36 726.868,929.36 L723.724,929.36 Z M758.236,929.36 C756.427991,929.36 754.884006,929.260001 753.604,929.06 C752.323994,928.859999 751.244004,928.592002 750.364,928.256 C749.483996,927.919998 748.784003,927.536002 748.264,927.104 C747.743997,926.671998 747.348001,926.224002 747.076,925.76 C746.803999,925.295998 746.628,924.836002 746.548,924.38 C746.468,923.923998 746.428,923.504002 746.428,923.12 L746.428,922.928 L757.108,922.928 C757.108,923.120001 757.14,923.327999 757.204,923.552 C757.268,923.776001 757.395999,923.983999 757.588,924.176 C757.780001,924.368001 758.063998,924.527999 758.44,924.656 C758.816002,924.784001 759.315997,924.848 759.94,924.848 C760.468003,924.848 760.907998,924.812 761.26,924.74 C761.612002,924.668 761.891999,924.576001 762.1,924.464 C762.308001,924.351999 762.456,924.220001 762.544,924.068 C762.632,923.915999 762.676,923.760001 762.676,923.6 L762.676,923.528 C762.676,923.383999 762.648,923.240001 762.592,923.096 C762.536,922.951999 762.396001,922.824001 762.172,922.712 C761.947999,922.599999 761.616002,922.504 761.176,922.424 C760.735998,922.344 760.132004,922.288 759.364,922.256 L755.596,922.136 C753.755991,922.072 752.260006,921.872002 751.108,921.536 C749.955994,921.199998 749.056003,920.776003 748.408,920.264 C747.759997,919.751997 747.316001,919.168003 747.076,918.512 C746.835999,917.855997 746.716,917.176004 746.716,916.472 L746.716,916.256 C746.716,915.423996 746.899998,914.672003 747.268,914 C747.636002,913.327997 748.259996,912.756002 749.14,912.284 C750.020004,911.811998 751.183993,911.452001 752.632,911.204 C754.080007,910.955999 755.883989,910.832 758.044,910.832 L761.092,910.832 C763.492012,910.832 765.455992,910.979999 766.984,911.276 C768.512008,911.572001 769.711996,911.975997 770.584,912.488 C771.456004,913.000003 772.059998,913.595997 772.396,914.276 C772.732002,914.956003 772.9,915.679996 772.9,916.448 L772.9,916.568 L762.436,916.568 C762.42,916.423999 762.38,916.268001 762.316,916.1 C762.252,915.931999 762.124001,915.776001 761.932,915.632 C761.739999,915.487999 761.468002,915.368 761.116,915.272 C760.763998,915.176 760.292003,915.128 759.7,915.128 C759.155997,915.128 758.716002,915.148 758.38,915.188 C758.043998,915.228 757.780001,915.288 757.588,915.368 C757.395999,915.448 757.268,915.547999 757.204,915.668 C757.14,915.788001 757.108,915.919999 757.108,916.064 L757.108,916.112 C757.108,916.288001 757.159999,916.435999 757.264,916.556 C757.368001,916.676001 757.547999,916.78 757.804,916.868 C758.060001,916.956 758.411998,917.028 758.86,917.084 C759.308002,917.14 759.875997,917.176 760.564,917.192 L764.164,917.288 C765.908009,917.336 767.375994,917.479999 768.568,917.72 C769.760006,917.960001 770.727996,918.303998 771.472,918.752 C772.216004,919.200002 772.751998,919.755997 773.08,920.42 C773.408002,921.084003 773.572,921.871995 773.572,922.784 L773.572,923.12 C773.572,923.920004 773.412002,924.691996 773.092,925.436 C772.771998,926.180004 772.168004,926.843997 771.28,927.428 C770.391996,928.012003 769.156008,928.479998 767.572,928.832 C765.987992,929.184002 763.924013,929.36 761.38,929.36 L758.236,929.36 Z M783.58,929 L774.484,929 L774.484,911.144 L783.58,911.144 L783.58,929 Z M792.508,917.288 L784.804,917.288 L784.804,911.144 L809.332,911.144 L809.332,917.288 L801.628,917.288 L801.628,929 L792.508,929 L792.508,917.288 Z M832.084,911.144 L832.084,916.136 L819.532,916.136 L819.532,917.528 L831.94,917.528 L831.94,922.424 L819.532,922.424 L819.532,923.96 L832.18,923.96 L832.18,929 L810.556,929 L810.556,911.144 L832.084,911.144 Z" id="salessite"></path>
        </g>
    </g>
</svg>